<svg width="1024" height="512" viewBox="0 0 1024 512" fill="none" xmlns="http://www.w3.org/2000/svg">
  <rect width="1024" height="512" fill="#111426"/>
  <path d="M42 406C170 310 302 320 432 366C560 412 686 414 810 340C898 288 976 274 1042 300V512H42V406Z" fill="url(#quizWave)"/>
  <circle cx="752" cy="188" r="162" fill="#7C5CFF" opacity="0.14"/>
  <g transform="translate(560 84)">
    <rect width="286" height="316" rx="32" fill="#181C35" stroke="#7C5CFF" stroke-opacity="0.58" stroke-width="3"/>
    <rect x="38" y="42" width="86" height="86" rx="24" fill="#7C5CFF" opacity="0.82"/>
    <rect x="158" y="42" width="86" height="86" rx="24" fill="#252B4B"/>
    <rect x="38" y="166" width="86" height="86" rx="24" fill="#252B4B"/>
    <rect x="158" y="166" width="86" height="86" rx="24" fill="#47D7A0" opacity="0.82"/>
    <path d="M64 86L78 100L103 70" stroke="#FFFFFF" stroke-width="10" stroke-linecap="round" stroke-linejoin="round"/>
    <path d="M180 86H222" stroke="#F6C768" stroke-width="10" stroke-linecap="round"/>
    <path d="M201 65V107" stroke="#F6C768" stroke-width="10" stroke-linecap="round"/>
    <path d="M66 212H104" stroke="#FFFFFF" stroke-opacity="0.5" stroke-width="10" stroke-linecap="round"/>
    <circle cx="201" cy="210" r="20" fill="#101326" opacity="0.42"/>
  </g>
  <g opacity="0.9">
    <path d="M288 152C340 118 416 132 456 184C496 236 488 310 438 350C388 390 314 384 270 336C226 288 236 186 288 152Z" fill="#171B33" stroke="#47D7A0" stroke-opacity="0.52" stroke-width="3"/>
    <path d="M314 238C320 202 352 182 388 190C424 198 446 230 438 266C430 302 398 324 362 316" stroke="#F6C768" stroke-width="15" stroke-linecap="round"/>
    <circle cx="360" cy="364" r="10" fill="#47D7A0"/>
  </g>
  <defs>
    <linearGradient id="quizWave" x1="42" y1="316" x2="1052" y2="478" gradientUnits="userSpaceOnUse">
      <stop stop-color="#47D7A0" stop-opacity="0.26"/>
      <stop offset="0.55" stop-color="#7C5CFF" stop-opacity="0.23"/>
      <stop offset="1" stop-color="#F6C768" stop-opacity="0.18"/>
    </linearGradient>
  </defs>
</svg>
